<svg width="75" height="68" viewBox="0 0 75 68" fill="none" xmlns="http://www.w3.org/2000/svg">
<path fill-rule="evenodd" clip-rule="evenodd" d="M11.1277 32.4077C11.9384 32.8247 16.2823 35.0592 14.3205 35.5933L11.0341 33.8647C13.4702 37.1937 16.4796 40.0731 19.9248 42.3712C24.5876 45.483 29.6469 47.4896 35.3298 47.7487C38.2538 47.8825 41.1 47.4931 43.8432 46.4768C48.037 44.9255 51.4384 42.3539 54.0474 38.7621C55.6229 36.5906 56.7583 34.211 57.3321 31.5956C57.6006 30.3877 57.7749 29.1593 57.9487 27.9342L57.9513 27.9157C58.2308 25.9497 58.1268 23.9768 57.8247 22.028C57.6635 20.9864 57.4292 19.9555 57.1948 18.9244C57.0698 18.3743 56.9447 17.8241 56.8308 17.2722C56.8063 17.1522 56.8631 16.9554 56.9504 16.8932C57.3321 15 59 14.5 60.9224 14.157C60.9501 14.138 60.9827 14.1271 61.0163 14.1255C61.05 14.1239 61.0834 14.1317 61.1128 14.148C61.1423 14.1643 61.1664 14.1884 61.1826 14.2176C61.1988 14.2469 61.2064 14.28 61.2045 14.3133C61.1922 14.5225 61.1801 14.7289 61.1681 14.9333C61.1282 15.6139 61.0896 16.2714 61.0499 16.9294C61.0414 17.072 61.0317 17.2146 61.022 17.3572C60.9487 18.4359 60.8756 19.5134 61.2875 20.5558C62.0377 22.4528 63.4324 23.6288 65.4324 24.0812C66.9861 24.4352 68.4979 24.3489 69.8865 23.4855C70.8376 22.8914 71.1991 21.9425 70.8935 20.8762C70.4655 19.3816 69.3642 18.5561 67.9669 18.0338C66.7319 17.5701 65.4411 17.52 64.1416 17.5779C63.7365 17.5956 63.3315 17.6232 62.9245 17.651C62.7953 17.6598 62.666 17.6687 62.5364 17.6772C62.511 17.6788 62.4855 17.6751 62.4617 17.6663C62.4379 17.6575 62.4162 17.6437 62.3981 17.626C62.38 17.6083 62.366 17.587 62.3568 17.5635C62.3477 17.5401 62.3437 17.5149 62.3451 17.4898L63.2927 1.17102C63.2997 1.02942 63.1687 0.981932 63.0307 0.998337C58.6605 1.50776 57.4814 1.63728 52.2693 1.78751C52.0789 1.79356 52.0221 1.91185 52.0894 2.08454C53.2892 5.22836 55.3771 4.60097 57.6808 3.90873C58.9405 3.53022 60.2646 3.13233 61.5434 3.32096C61.6351 3.33478 61.656 6.71855 61.6508 6.81008L61.2892 12.8938C61.2877 12.9208 61.2799 12.9471 61.2666 12.9707C61.2532 12.9943 61.2346 13.0145 61.2121 13.0299C61.1896 13.0453 61.1639 13.0554 61.1368 13.0595C61.1098 13.0636 61.0822 13.0616 61.056 13.0535C59.873 12.6919 58.9021 12.3443 57.9327 11.9972C57.0136 11.6681 56.0958 11.3396 55 11C54.947 10.9781 54.8096 10.9477 54.6472 10.9118C54.3306 10.8418 53.919 10.7508 53.8535 10.661C52.9802 9.5834 52.0195 8.58874 50.892 7.74949C48.1776 5.73079 45.1768 5.0694 41.8834 5.97168C39.6572 6.58212 37.8319 7.87727 36.1822 9.43144C33.7787 11.6936 31.5691 14.1941 30.274 17.1928C29.4434 19.1191 28.7596 21.6179 28.6146 22.9009C27.3334 28.5417 22.5 32.3408 11.0018 32.3408C10.9913 32.3375 11.0377 32.3614 11.1277 32.4077ZM29.2478 36.923C29.3454 36.9249 29.443 36.9186 29.5395 36.904L44.7131 29.9638C43 36.904 35.3979 46.1384 29.1604 37.252C29.0495 37.0957 29.0915 36.923 29.2478 36.923ZM47.9995 13.5C47.9995 14.8807 46.8802 16 45.4995 16C44.1188 16 42.9995 14.8807 42.9995 13.5C42.9995 12.1193 44.1188 11 45.4995 11C46.8802 11 47.9995 12.1193 47.9995 13.5Z" fill="white"/>
<path d="M4.172 63.154C6.44 63.154 8.176 62.258 8.176 59.906C8.176 57.974 6.986 57.33 5.208 56.826C4.312 56.56 3.626 56.476 3.626 55.874C3.626 55.762 3.612 55.342 4.634 55.342C5.852 55.342 7.392 55.93 7.938 56.196V53.592C6.86 53.144 5.362 52.976 4.326 52.976C2.31 52.976 0.532 53.788 0.532 56.182C0.532 58.282 1.946 58.898 3.598 59.388C4.606 59.668 5.124 59.738 5.124 60.27C5.124 60.536 4.956 60.788 4.06 60.788C2.94 60.788 1.414 60.256 0.588 59.836V62.496C1.708 62.972 3.038 63.154 4.172 63.154ZM13.7926 63.224C17.0126 63.224 18.5386 61.18 18.5386 58.072C18.5386 55.02 17.0266 52.976 13.7926 52.976C10.5726 52.976 9.06063 55.02 9.06063 58.072C9.06063 61.18 10.5586 63.224 13.7926 63.224ZM13.7926 60.858C12.7846 60.858 12.2246 60.158 12.2246 58.1C12.2246 56.056 12.7846 55.342 13.7926 55.342C14.8146 55.342 15.4026 56.056 15.4026 58.1C15.4026 60.158 14.8146 60.858 13.7926 60.858ZM25.6409 53.2V55.846L25.6549 58.086L22.7149 53.2H19.6349L19.7749 55.426L19.7889 63H22.5609V57.918L25.5149 63H28.4549V53.2H25.6409ZM34.2272 57.274V59.276H35.8372V60.746C35.6412 60.802 35.3332 60.858 34.9272 60.858C33.7652 60.858 32.8832 60.088 32.8832 58.212C32.8832 56.434 33.6672 55.328 35.4732 55.328C36.7052 55.328 37.3772 55.622 38.0912 55.944V53.438C37.2652 53.144 36.0332 52.976 35.0812 52.976C31.7912 52.976 29.7052 54.754 29.7052 58.24C29.7052 61.838 31.9312 63.21 34.7592 63.21C36.1872 63.21 37.2232 62.958 38.2872 62.594V57.274H34.2272ZM48.6862 57.932C48.9942 57.82 50.2262 57.4 50.2262 55.748C50.2262 54.138 49.2182 53.2 46.9362 53.2H42.3302L42.4842 55.594V63H47.3982C49.2042 63 50.5902 62.09 50.5902 60.256C50.5902 58.632 49.3722 58.044 48.6862 57.932ZM45.3542 55.426H46.6282C47.1742 55.426 47.3982 55.804 47.3982 56.21C47.3982 56.686 47.0902 56.966 46.6002 56.966H45.3542V55.426ZM45.3542 60.774V59.052H46.8662C47.3002 59.052 47.6922 59.374 47.6922 59.92C47.6922 60.368 47.4542 60.774 46.8382 60.774H45.3542ZM51.6271 53.2L51.7811 55.594V63H54.7771V53.032L51.6271 53.2ZM64.6755 56.434C64.6755 54.684 63.5415 53.2 61.2455 53.2H56.2755L56.4295 55.594V63H59.4255V59.64H60.1955L61.4135 63H64.4375L62.9255 59.416C64.0595 58.912 64.6755 57.694 64.6755 56.434ZM60.5735 55.468C61.3015 55.468 61.6375 55.79 61.6375 56.42C61.6375 57.078 61.3015 57.386 60.5735 57.386H59.4395V55.468H60.5735ZM72.8351 54.068C72.3031 53.648 71.4911 53.2 70.1331 53.2H65.7091L65.8631 55.594V63H70.0491C71.3371 63 72.2891 62.566 72.8351 62.076C73.9411 61.152 74.5151 59.682 74.5151 58.044C74.5011 56.364 74.0111 54.964 72.8351 54.068ZM70.9591 60.046C70.6651 60.452 70.2031 60.69 69.5451 60.69H68.8591V55.51H69.5451C70.0771 55.51 70.5111 55.664 70.8331 55.986C71.2111 56.378 71.3651 56.994 71.3651 58.03C71.3651 58.94 71.2671 59.612 70.9591 60.046Z" fill="white"/>
</svg>
