<svg width="70" height="70" viewBox="0 0 70 70" fill="none" xmlns="http://www.w3.org/2000/svg">
<path d="M35 0C15.6719 0 0 15.6719 0 35C0 54.3281 15.6719 70 35 70C54.3281 70 70 54.3281 70 35C70 15.6719 54.3281 0 35 0ZM28.75 46.875C28.75 47.2188 28.4688 47.5 28.125 47.5H24.375C24.0312 47.5 23.75 47.2188 23.75 46.875V23.125C23.75 22.7812 24.0312 22.5 24.375 22.5H28.125C28.4688 22.5 28.75 22.7812 28.75 23.125V46.875ZM46.25 46.875C46.25 47.2188 45.9688 47.5 45.625 47.5H41.875C41.5312 47.5 41.25 47.2188 41.25 46.875V23.125C41.25 22.7812 41.5312 22.5 41.875 22.5H45.625C45.9688 22.5 46.25 22.7812 46.25 23.125V46.875Z" fill="#3F3098"/>
</svg>
