<svg width="126" height="48" viewBox="0 0 126 48" fill="none" xmlns="http://www.w3.org/2000/svg">
<g clip-path="url(#clip0_21_67)">
<path d="M65.0514 15.692L71.046 15.2997C71.1827 16.292 71.4334 17.0304 71.8437 17.5612C72.5047 18.3919 73.4164 18.8073 74.6245 18.8073C75.5134 18.8073 76.22 18.5996 76.6986 18.1612C77.1545 17.815 77.428 17.2612 77.428 16.6843C77.428 16.1304 77.1773 15.5997 76.7442 15.2535C76.2884 14.8382 75.2171 14.4228 73.5304 14.0536C70.7724 13.4305 68.7894 12.5997 67.627 11.5382C66.4645 10.5459 65.8035 9.09212 65.8491 7.546C65.8491 6.48448 66.1682 5.42296 66.7608 4.54606C67.4446 3.55377 68.3792 2.76917 69.496 2.33072C70.704 1.79996 72.3907 1.52304 74.5105 1.52304C77.1089 1.52304 79.0919 2.00765 80.4595 2.99994C81.8271 3.96915 82.6476 5.53835 82.8983 7.68446L76.9721 8.03061C76.8126 7.10755 76.4935 6.43833 75.9692 5.99988C75.445 5.56142 74.7612 5.35374 73.8723 5.35374C73.1429 5.35374 72.5959 5.51527 72.2312 5.81526C71.8893 6.09218 71.6614 6.50756 71.6842 6.96909C71.6842 7.31524 71.8665 7.63831 72.14 7.84599C72.4363 8.12291 73.1429 8.37675 74.2598 8.60752C77.0177 9.20751 78.9779 9.8075 80.186 10.4306C81.394 11.0536 82.2601 11.8151 82.7844 12.7151C83.3314 13.6382 83.6049 14.6997 83.5821 15.7843C83.5821 17.0766 83.2174 18.3689 82.4881 19.4535C81.7359 20.5842 80.6874 21.4611 79.4566 21.9919C78.1574 22.5688 76.5163 22.8688 74.5561 22.8688C71.0915 22.8688 68.6983 22.1996 67.3535 20.838C66.0087 19.4765 65.2109 17.7689 65.0514 15.692ZM1.43596 22.5226V1.89226H11.9436C13.881 1.89226 15.3853 2.0538 16.411 2.39995C17.4139 2.72302 18.3028 3.39224 18.8954 4.29222C19.5564 5.28451 19.8755 6.43833 19.8527 7.63831C19.9211 9.66903 18.8954 11.6075 17.1404 12.6228C16.4566 13.0151 15.7044 13.292 14.9295 13.4305C15.4993 13.592 16.0691 13.869 16.5705 14.192C16.958 14.5151 17.2771 14.8843 17.5734 15.2766C17.9153 15.6689 18.2116 16.1074 18.4624 16.5689L21.5166 22.5457H14.3596L10.9863 16.1997C10.5532 15.392 10.1885 14.8612 9.8466 14.6074C9.39074 14.2843 8.84371 14.1228 8.29667 14.1228H7.74964V22.4996H1.43596V22.5226ZM7.74964 10.2459H10.4164C10.9863 10.1998 11.5333 10.1075 12.0803 9.96903C12.4906 9.8998 12.8553 9.66904 13.106 9.32289C13.7214 8.49214 13.6302 7.31524 12.8781 6.59986C12.4678 6.25372 11.67 6.06911 10.5304 6.06911H7.74964V10.2459ZM0 40.1992L5.99457 39.8069C6.13133 40.7992 6.38205 41.5376 6.79233 42.0684C7.43054 42.8992 8.36505 43.3376 9.57308 43.3376C10.462 43.3376 11.1686 43.1299 11.6473 42.6915C12.1031 42.3222 12.3766 41.7915 12.3766 41.2146C12.3766 40.6607 12.1259 40.13 11.6928 39.7838C11.237 39.3685 10.1657 38.9531 8.45622 38.5839C5.69826 37.9608 3.71527 37.13 2.55282 36.0685C1.39038 35.0762 0.729378 33.6224 0.774964 32.0763C0.774964 31.0148 1.09407 29.9533 1.68669 29.0763C2.37048 28.0841 3.30499 27.2995 4.42185 26.861C5.62988 26.3302 7.31657 26.0533 9.43632 26.0533C12.0347 26.0533 14.0177 26.5379 15.3853 27.5302C16.7529 28.5225 17.5506 30.0686 17.8014 32.2148L11.8752 32.5609C11.7156 31.6378 11.3965 30.9686 10.8723 30.5302C10.3708 30.0917 9.66425 29.884 8.77533 29.9071C8.04595 29.9071 7.49891 30.0686 7.13423 30.3917C6.76954 30.6686 6.5644 31.084 6.58719 31.5455C6.58719 31.8917 6.76954 32.2147 7.04305 32.4224C7.33936 32.6994 8.04595 32.9532 9.16281 33.184C11.9208 33.784 13.881 34.3839 15.089 35.007C16.297 35.6301 17.1632 36.3916 17.6874 37.2916C18.2344 38.2146 18.508 39.2761 18.508 40.3377C18.508 41.63 18.1205 42.8992 17.4139 43.9838C16.6617 45.1145 15.6132 45.9914 14.3824 46.5222C13.0832 47.0991 11.4421 47.3991 9.48191 47.3991C6.01737 47.3991 3.6241 46.7299 2.27931 45.3683C0.934515 43.9838 0.182344 42.2761 0 40.1992H0Z" fill="white"/>
<path d="M30.3148 38.5839L35.8307 40.2685C35.5344 41.6761 34.919 43.0146 34.0756 44.1915C33.3007 45.2299 32.275 46.0376 31.1125 46.5683C29.9273 47.0991 28.4229 47.376 26.5995 47.376C24.3886 47.376 22.5651 47.0529 21.1748 46.4068C19.7616 45.7607 18.5536 44.6068 17.5279 42.9684C16.5022 41.33 16.0007 39.23 16.0007 36.6685C16.0007 33.2532 16.8897 30.6225 18.6903 28.7994C20.491 26.9764 23.021 26.0533 26.3032 26.0533C28.8788 26.0533 30.8846 26.5841 32.3661 27.6225C33.8249 28.6841 34.919 30.2994 35.6483 32.4686L30.0868 33.7147C29.9501 33.2301 29.7449 32.7455 29.4714 32.3301C29.1295 31.8455 28.6965 31.4763 28.1722 31.1994C27.648 30.9225 27.0554 30.8071 26.4627 30.8071C25.0268 30.8071 23.9327 31.384 23.1805 32.5609C22.6107 33.4147 22.3144 34.7763 22.3144 36.6224C22.3144 38.9069 22.6563 40.4761 23.3401 41.33C24.0239 42.1838 24.9812 42.5992 26.2348 42.5992C27.4428 42.5992 28.3546 42.253 28.97 41.5838C29.5854 40.8684 30.0413 39.8762 30.3148 38.5839ZM43.1928 26.3995H49.4837V33.6224H56.3672V26.3995H62.7037V47.0299H56.3672V38.6762H49.4837V47.0299H43.1928V26.3995Z" fill="white"/>
<path d="M61.8376 36.7147C61.8376 33.3455 62.7721 30.7148 64.6183 28.8456C66.4645 26.9764 69.063 26.0303 72.3679 26.0303C75.7641 26.0303 78.3625 26.9533 80.2088 28.7995C82.055 30.6456 82.9667 33.2301 82.9667 36.5531C82.9667 38.9762 82.5564 40.9377 81.7587 42.4838C80.9837 44.0068 79.7757 45.253 78.2941 46.0837C76.767 46.9376 74.8752 47.376 72.6187 47.376C70.3166 47.376 68.4248 47.0068 66.9204 46.2683C65.3705 45.4837 64.0941 44.2607 63.2507 42.7607C62.3162 41.1454 61.8376 39.1377 61.8376 36.7147ZM68.1284 36.7378C68.1284 38.8146 68.5159 40.3146 69.2681 41.2377C70.0203 42.1376 71.0687 42.5992 72.3907 42.5992C73.7355 42.5992 74.784 42.1607 75.5362 41.2607C76.2884 40.3608 76.653 38.7685 76.653 36.4608C76.653 34.5224 76.2656 33.0917 75.4906 32.2148C74.7156 31.3148 73.6672 30.8763 72.3452 30.8763C71.1827 30.8302 70.0659 31.3379 69.2909 32.2378C68.5159 33.1378 68.1284 34.6378 68.1284 36.7378ZM89.4172 36.7147C89.4172 33.3455 90.3517 30.7148 92.1979 28.8456C94.0441 26.9764 96.6426 26.0303 99.9475 26.0303C103.344 26.0303 105.965 26.9533 107.788 28.7995C109.612 30.6456 110.546 33.2301 110.546 36.5531C110.546 38.9762 110.136 40.9377 109.338 42.4838C108.563 44.0068 107.355 45.253 105.874 46.0837C104.347 46.9376 102.455 47.376 100.198 47.376C97.8962 47.376 96.0043 47.0068 94.5 46.2683C92.9501 45.4837 91.6737 44.2607 90.8303 42.7607C89.8958 41.1454 89.4172 39.1377 89.4172 36.7147ZM95.708 36.7378C95.708 38.8146 96.0955 40.3146 96.8477 41.2377C97.5999 42.1376 98.6483 42.5992 99.9703 42.5992C101.315 42.5992 102.364 42.1607 103.116 41.2607C103.868 40.3608 104.233 38.7685 104.233 36.4608C104.233 34.5224 103.845 33.0917 103.07 32.2148C102.295 31.3148 101.247 30.8763 99.9248 30.8763C98.7623 30.8302 97.6227 31.3379 96.8705 32.2378C96.0955 33.1378 95.708 34.6378 95.708 36.7378Z" fill="white"/>
<path d="M109.885 26.3995H116.176V41.953H126V47.0298H109.863V26.3995H109.885Z" fill="white"/>
<path d="M102.951 25.2089C109.285 20.3767 111.238 12.1853 107.314 6.91294C103.389 1.64058 95.0736 1.28377 88.74 6.11598C82.4064 10.9482 80.4534 19.1396 84.3777 24.4119C88.3021 29.6843 96.6178 30.0411 102.951 25.2089Z" fill="#3F3098"/>
<path d="M102.951 25.2089C109.285 20.3767 111.238 12.1853 107.314 6.91294C103.389 1.64058 95.0736 1.28377 88.74 6.11598C82.4064 10.9482 80.4534 19.1396 84.3777 24.4119C88.3021 29.6843 96.6178 30.0411 102.951 25.2089Z" stroke="white" stroke-width="2" stroke-miterlimit="10"/>
<path d="M89.4399 14.1459L91.7192 12.5305L94.5228 16.5689C95.0014 17.215 95.3661 17.9073 95.6396 18.6689C95.7992 19.2458 95.7536 19.8688 95.5257 20.4227C95.2293 21.115 94.7507 21.6919 94.1125 22.1073C93.3603 22.638 92.7221 22.938 92.1751 23.0303C91.6508 23.1226 91.1038 23.0303 90.6024 22.7995C90.0553 22.5226 89.5767 22.1303 89.212 21.6226L91.1722 19.7765C91.3317 20.0304 91.5369 20.2611 91.7648 20.4457C91.9244 20.5611 92.1067 20.6304 92.3118 20.6304C92.4714 20.6304 92.6309 20.5611 92.7449 20.4688C92.9728 20.3304 93.1324 20.0534 93.1096 19.7765C93.0412 19.3842 92.8817 18.9919 92.6309 18.6919L89.4399 14.1459ZM96.2778 16.7074L98.352 15.0459C98.5799 15.3228 98.8762 15.5305 99.1953 15.6458C99.6512 15.7843 100.13 15.692 100.517 15.392C100.791 15.2074 101.019 14.9535 101.11 14.6305C101.247 14.2151 101.019 13.7536 100.609 13.6151C100.54 13.592 100.472 13.569 100.403 13.569C100.13 13.5459 99.6512 13.6613 98.9446 13.9613C97.7822 14.4459 96.8704 14.6305 96.1867 14.5612C95.5257 14.492 94.9102 14.1459 94.5455 13.569C94.272 13.1767 94.1353 12.7151 94.1125 12.2536C94.1125 11.7228 94.2492 11.1921 94.5455 10.7536C94.9786 10.1306 95.5029 9.5998 96.1411 9.18443C97.0984 8.51521 97.9417 8.19214 98.6711 8.19214C99.4005 8.19214 100.084 8.53829 100.722 9.25366L98.6711 10.8921C98.2608 10.3613 97.4859 10.2459 96.9616 10.6613L96.8932 10.7306C96.6653 10.869 96.5058 11.0767 96.4146 11.3305C96.3462 11.5152 96.3918 11.7228 96.5058 11.8844C96.5969 11.9998 96.7337 12.0921 96.8932 12.0921C97.0756 12.1151 97.3947 12.0228 97.8505 11.8151C98.9902 11.3305 99.8563 11.0536 100.449 10.9613C100.95 10.869 101.475 10.9152 101.953 11.1229C102.386 11.3075 102.751 11.6305 103.002 12.0228C103.321 12.4844 103.503 13.0382 103.526 13.6151C103.549 14.2151 103.389 14.792 103.07 15.2997C102.66 15.9228 102.136 16.4535 101.52 16.8689C100.267 17.7458 99.2409 18.115 98.4204 17.9766C97.5314 17.8381 96.8021 17.3766 96.2778 16.7074Z" fill="white"/>
</g>
<defs>
<clipPath id="clip0_21_67">
<rect width="126" height="47.376" fill="white"/>
</clipPath>
</defs>
</svg>
