<svg width="145" height="37" viewBox="0 0 145 37" fill="none" xmlns="http://www.w3.org/2000/svg">
<path fill-rule="evenodd" clip-rule="evenodd" d="M2.61042 27.202C4.15287 26.7821 0.737588 25.0252 0.100168 24.6973C0.0294584 24.661 -0.00707119 24.6422 0.00113804 24.6447C9.04139 24.6447 12.8416 21.6578 13.8489 17.2229C13.9629 16.2141 14.5005 14.2495 15.1535 12.735C16.1718 10.3773 17.909 8.41137 19.7987 6.63278C21.0958 5.41085 22.5309 4.39257 24.2812 3.91262C26.8706 3.20322 29.2299 3.72323 31.364 5.31038C32.2505 5.97022 33.0058 6.75226 33.6924 7.59946C33.7439 7.67009 34.0675 7.74165 34.3165 7.79671C34.4441 7.82494 34.5522 7.84883 34.5938 7.86603C35.4554 8.13299 36.1769 8.39133 36.8996 8.65006L36.8999 8.65015L36.9002 8.65028C37.6622 8.92307 38.4254 9.1963 39.3553 9.48056C39.3758 9.48689 39.3975 9.48851 39.4187 9.48529C39.44 9.48208 39.4602 9.47411 39.4779 9.46201C39.4956 9.4499 39.5103 9.43396 39.5208 9.41542C39.5313 9.39687 39.5374 9.3762 39.5386 9.35497L39.8229 4.57179C39.827 4.49983 39.8105 1.83941 39.7384 1.82855C38.733 1.68024 37.6919 1.99308 36.7016 2.29067C34.8903 2.83492 33.2487 3.3282 32.3054 0.856436C32.2525 0.720666 32.2972 0.627659 32.4468 0.622907C36.5448 0.504787 37.4718 0.402958 40.9078 0.00243573C41.0163 -0.0104627 41.1193 0.0268746 41.1138 0.138206L40.3688 12.9685C40.3676 12.9882 40.3708 13.008 40.378 13.0265C40.3851 13.0449 40.3962 13.0617 40.4104 13.0756C40.4246 13.0895 40.4417 13.1003 40.4604 13.1072C40.4791 13.1142 40.4992 13.1171 40.5191 13.1158L40.7117 13.1029L40.8243 13.0952C41.1442 13.0734 41.4627 13.0517 41.7812 13.0377C42.8029 12.9923 43.8178 13.0316 44.7887 13.3962C45.8874 13.8069 46.7532 14.4559 47.0897 15.631C47.33 16.4693 47.0458 17.2154 46.298 17.6824C45.2062 18.3613 44.0176 18.4292 42.7961 18.1509C41.2236 17.7951 40.1271 16.8705 39.5372 15.3791C39.2134 14.5595 39.2709 13.7123 39.3285 12.8643C39.3328 12.8 39.3372 12.7358 39.3414 12.6715C39.3445 12.6237 39.3476 12.5758 39.3504 12.5279C39.3817 12.0091 39.4121 11.4907 39.4436 10.9541L39.472 10.471C39.4735 10.4449 39.4675 10.4188 39.4548 10.3958C39.442 10.3729 39.423 10.3539 39.3999 10.3411C39.3768 10.3283 39.3505 10.3221 39.324 10.3234C39.2976 10.3246 39.272 10.3332 39.2502 10.3481C37.7387 10.6178 36.4274 11.0109 36.1273 12.4994C36.0586 12.5483 36.014 12.7031 36.0332 12.7974C36.1226 13.2302 36.2206 13.6616 36.3186 14.093L36.3194 14.0964C36.5037 14.9071 36.6879 15.7176 36.8146 16.5365C37.0522 18.0687 37.1339 19.6199 36.9142 21.1656L36.9121 21.1801L36.912 21.1813C36.7754 22.1441 36.6384 23.1096 36.4274 24.0589C35.9762 26.1151 35.0836 27.986 33.8449 29.6934C31.7936 32.5174 29.1193 34.5392 25.822 35.7589C23.6653 36.5579 21.4274 36.8641 19.1285 36.7589C14.6605 36.5552 10.6827 34.9775 7.01667 32.531C4.30799 30.7241 1.94187 28.4603 0.0265592 25.8429L2.61042 27.202ZM14.576 28.2325C14.5002 28.2439 14.4234 28.2489 14.3467 28.2474C14.2238 28.2474 14.1908 28.3832 14.278 28.5061C19.1821 35.4928 25.1591 28.2325 26.5059 22.7759L14.576 28.2325ZM27.1242 11.7972C28.2098 11.7972 29.0898 10.9172 29.0898 9.8316C29.0898 8.74604 28.2098 7.86603 27.1242 7.86603C26.0387 7.86603 25.1587 8.74604 25.1587 9.8316C25.1587 10.9172 26.0387 11.7972 27.1242 11.7972ZM57.83 23.454C57.026 23.37 56.3 23.328 55.652 23.328C54.716 23.328 53.918 23.388 53.258 23.508C52.61 23.628 52.088 23.826 51.692 24.102C51.296 24.378 51.002 24.75 50.81 25.218C50.63 25.686 50.54 26.274 50.54 26.982C50.54 27.894 50.75 28.632 51.17 29.196C51.59 29.76 52.304 30.27 53.312 30.726L55.778 31.806C56.006 31.89 56.18 31.968 56.3 32.04C56.42 32.112 56.504 32.19 56.552 32.274C56.6 32.346 56.624 32.442 56.624 32.562C56.624 32.67 56.588 32.76 56.516 32.832C56.456 32.892 56.336 32.934 56.156 32.958C55.988 32.982 55.736 32.994 55.4 32.994H54.41C53.978 32.982 53.462 32.97 52.862 32.958C52.262 32.934 51.602 32.916 50.882 32.904L50.648 35.64C51.728 35.916 52.694 36.084 53.546 36.144C54.398 36.216 55.034 36.252 55.454 36.252C56.426 36.252 57.236 36.18 57.884 36.036C58.532 35.904 59.048 35.694 59.432 35.406C59.828 35.106 60.11 34.716 60.278 34.236C60.446 33.744 60.53 33.15 60.53 32.454C60.53 31.542 60.32 30.798 59.9 30.222C59.492 29.634 58.772 29.118 57.74 28.674L55.49 27.738C55.07 27.57 54.782 27.432 54.626 27.324C54.482 27.204 54.41 27.06 54.41 26.892C54.41 26.796 54.428 26.718 54.464 26.658C54.5 26.598 54.56 26.55 54.644 26.514C54.728 26.478 54.842 26.454 54.986 26.442C55.142 26.43 55.334 26.424 55.562 26.424C56.342 26.424 57.128 26.43 57.92 26.442C58.724 26.442 59.396 26.448 59.936 26.46L60.17 23.958C59.426 23.694 58.646 23.526 57.83 23.454ZM70.0403 23.634C69.3083 23.43 68.4083 23.328 67.3403 23.328C66.2843 23.328 65.3843 23.43 64.6403 23.634C63.9083 23.826 63.3143 24.162 62.8583 24.642C62.4023 25.122 62.0723 25.782 61.8683 26.622C61.6643 27.45 61.5623 28.506 61.5623 29.79C61.5623 31.062 61.6643 32.118 61.8683 32.958C62.0723 33.798 62.4023 34.458 62.8583 34.938C63.3143 35.418 63.9083 35.76 64.6403 35.964C65.3843 36.156 66.2843 36.252 67.3403 36.252C68.4083 36.252 69.3083 36.156 70.0403 35.964C70.7843 35.76 71.3843 35.418 71.8403 34.938C72.2963 34.458 72.6264 33.798 72.8303 32.958C73.0343 32.118 73.1363 31.062 73.1363 29.79C73.1363 28.506 73.0343 27.45 72.8303 26.622C72.6264 25.782 72.2963 25.122 71.8403 24.642C71.3843 24.162 70.7843 23.826 70.0403 23.634ZM66.3143 26.514C66.5543 26.322 66.8963 26.226 67.3403 26.226C67.7843 26.226 68.1264 26.322 68.3663 26.514C68.6063 26.706 68.7743 27.06 68.8703 27.576C68.9663 28.092 69.0144 28.83 69.0144 29.79C69.0144 30.75 68.9663 31.488 68.8703 32.004C68.7743 32.52 68.6063 32.874 68.3663 33.066C68.1264 33.258 67.7843 33.354 67.3403 33.354C66.8963 33.354 66.5543 33.258 66.3143 33.066C66.0743 32.874 65.9064 32.52 65.8103 32.004C65.7143 31.488 65.6663 30.75 65.6663 29.79C65.6663 28.83 65.7143 28.092 65.8103 27.576C65.9064 27.06 66.0743 26.706 66.3143 26.514ZM86.0789 34.65V23.58H82.4969L82.5149 28.656C82.5149 29.028 82.5269 29.4 82.5509 29.772C82.5869 30.144 82.6289 30.522 82.6769 30.906H82.5509C82.4069 30.51 82.2509 30.132 82.0829 29.772C81.9269 29.412 81.7649 29.082 81.5969 28.782L79.0049 24.714C78.7889 24.342 78.5849 24.06 78.3929 23.868C78.2009 23.676 77.9009 23.58 77.4929 23.58H75.9989C75.0989 23.58 74.6489 24.03 74.6489 24.93V36H78.2489V30.744C78.2489 30.384 78.2309 30.012 78.1949 29.628C78.1709 29.232 78.1289 28.848 78.0689 28.476H78.1949C78.3029 28.848 78.4229 29.22 78.5549 29.592C78.6989 29.952 78.8549 30.288 79.0229 30.6L81.7229 34.866C81.9269 35.238 82.1249 35.52 82.3169 35.712C82.5209 35.904 82.8269 36 83.2349 36H84.7289C85.6289 36 86.0789 35.55 86.0789 34.65ZM95.156 23.382C94.6639 23.346 94.088 23.328 93.428 23.328C91.9999 23.328 90.854 23.538 89.99 23.958C89.1379 24.366 88.52 25.044 88.136 25.992C87.764 26.928 87.578 28.194 87.578 29.79C87.578 31.35 87.722 32.604 88.01 33.552C88.298 34.5 88.748 35.19 89.36 35.622C89.972 36.042 90.752 36.252 91.7 36.252C92.36 36.252 92.942 36.15 93.446 35.946C93.95 35.73 94.364 35.472 94.688 35.172C94.8674 35.0118 95.0195 34.8601 95.1442 34.7169L95.48 36H98.36V28.854H94.616V32.8104L94.598 32.814C94.4179 32.85 94.214 32.88 93.986 32.904C93.77 32.916 93.53 32.922 93.266 32.922C92.8579 32.922 92.54 32.838 92.312 32.67C92.084 32.49 91.922 32.178 91.826 31.734C91.73 31.278 91.682 30.63 91.682 29.79C91.682 29.154 91.706 28.632 91.754 28.224C91.814 27.804 91.91 27.48 92.042 27.252C92.174 27.012 92.354 26.85 92.5819 26.766C92.81 26.67 93.098 26.622 93.446 26.622C94.01 26.622 94.514 26.628 94.958 26.64H96.236C96.656 26.64 97.094 26.646 97.55 26.658L97.838 23.85C97.406 23.718 96.974 23.616 96.542 23.544C96.122 23.472 95.66 23.418 95.156 23.382ZM111.859 23.724C111.175 23.532 110.257 23.436 109.105 23.436C108.313 23.436 107.611 23.442 106.999 23.454C106.399 23.454 105.841 23.466 105.325 23.49C104.809 23.502 104.281 23.532 103.741 23.58V36C104.329 36.036 104.905 36.066 105.469 36.09C106.045 36.114 106.669 36.126 107.341 36.126C108.025 36.138 108.811 36.144 109.699 36.144C110.743 36.144 111.595 36.054 112.255 35.874C112.915 35.682 113.401 35.352 113.713 34.884C114.037 34.416 114.199 33.756 114.199 32.904C114.199 31.908 114.001 31.134 113.605 30.582C113.209 30.018 112.513 29.694 111.517 29.61V29.502C112.333 29.43 112.915 29.166 113.263 28.71C113.611 28.242 113.785 27.564 113.785 26.676C113.785 25.824 113.635 25.164 113.335 24.696C113.035 24.228 112.543 23.904 111.859 23.724ZM107.557 33.4948C108.01 33.4969 108.49 33.498 108.997 33.498C109.357 33.498 109.633 33.462 109.825 33.39C110.017 33.318 110.143 33.18 110.203 32.976C110.275 32.772 110.311 32.484 110.311 32.112C110.311 31.728 110.275 31.434 110.203 31.23C110.131 31.026 109.999 30.888 109.807 30.816C109.627 30.744 109.351 30.708 108.979 30.708H107.557V33.4948ZM107.557 28.422H108.943C109.243 28.422 109.471 28.392 109.627 28.332C109.795 28.272 109.909 28.158 109.969 27.99C110.029 27.81 110.059 27.558 110.059 27.234C110.059 26.91 110.029 26.67 109.969 26.514C109.909 26.346 109.795 26.232 109.627 26.172C109.459 26.112 109.219 26.082 108.907 26.082H107.557V28.422ZM115.642 36H119.512V23.58H115.642V36ZM129.669 23.742C128.901 23.514 127.905 23.4 126.681 23.4C125.853 23.4 125.145 23.406 124.557 23.418C123.981 23.418 123.447 23.43 122.955 23.454C122.475 23.478 121.959 23.52 121.407 23.58V36H125.241V31.4507C125.604 31.4537 126.006 31.4581 126.447 31.464C126.783 31.464 127.023 31.518 127.167 31.626C127.323 31.734 127.437 31.962 127.509 32.31L128.319 36H132.405L131.433 32.184C131.337 31.68 131.169 31.296 130.929 31.032C130.689 30.756 130.431 30.564 130.155 30.456C129.879 30.336 129.627 30.264 129.399 30.24V30.132C130.047 30.06 130.551 29.886 130.911 29.61C131.283 29.334 131.541 28.986 131.685 28.566C131.841 28.134 131.919 27.672 131.919 27.18C131.919 26.208 131.733 25.452 131.361 24.912C131.001 24.36 130.437 23.97 129.669 23.742ZM125.241 28.71H126.591C126.963 28.71 127.251 28.674 127.455 28.602C127.659 28.53 127.797 28.404 127.869 28.224C127.953 28.032 127.995 27.768 127.995 27.432C127.995 27.084 127.953 26.82 127.869 26.64C127.797 26.46 127.659 26.334 127.455 26.262C127.251 26.19 126.963 26.154 126.591 26.154C126.112 26.154 125.662 26.1549 125.241 26.1567V28.71ZM141.581 23.706C140.849 23.502 139.949 23.4 138.881 23.4C137.825 23.4 136.871 23.418 136.019 23.454C135.179 23.49 134.363 23.532 133.571 23.58V36C134.351 36.048 135.173 36.09 136.037 36.126C136.901 36.162 137.849 36.18 138.881 36.18C139.949 36.18 140.849 36.084 141.581 35.892C142.325 35.688 142.925 35.352 143.381 34.884C143.837 34.404 144.167 33.75 144.371 32.922C144.575 32.094 144.677 31.05 144.677 29.79C144.677 28.53 144.575 27.486 144.371 26.658C144.167 25.83 143.837 25.182 143.381 24.714C142.925 24.234 142.325 23.898 141.581 23.706ZM137.477 33.3468C137.918 33.3516 138.386 33.354 138.881 33.354C139.325 33.354 139.667 33.258 139.907 33.066C140.147 32.874 140.315 32.52 140.411 32.004C140.507 31.488 140.555 30.75 140.555 29.79C140.555 28.83 140.507 28.092 140.411 27.576C140.315 27.06 140.147 26.706 139.907 26.514C139.667 26.322 139.325 26.226 138.881 26.226H137.477V33.3468ZM59.3908 13.7051C59.4882 13.7116 59.5928 13.6806 59.686 13.6175C59.7793 13.5545 59.8552 13.4634 59.9002 13.3605C59.9454 13.2576 59.9567 13.1494 59.9324 13.0552C59.908 12.9611 59.8495 12.8869 59.7672 12.8458C58.1059 12.4239 58.4736 10.3803 58.9818 8.30812L59.0877 7.90704C59.2741 7.20119 59.3902 6.49373 59.4343 5.79655L68.6525 13.5808C68.0862 13.8481 67.5646 14.2535 67.1402 14.756C66.7159 15.2586 66.4036 15.8407 66.2349 16.4438C65.9836 16.8088 65.8064 17.2116 65.7177 17.62C65.6289 18.0283 65.6309 18.431 65.7236 18.7956C65.8163 19.1602 65.9971 19.4767 66.2515 19.7198C66.5059 19.9629 66.8269 20.1257 67.1887 20.1954C67.5506 20.2651 67.9433 20.2396 68.3354 20.121C68.7275 20.0024 69.108 19.794 69.4467 19.5124C69.7854 19.2308 70.0728 18.884 70.2858 18.4995C70.4989 18.115 70.6317 17.7036 70.6737 17.2983C70.9446 16.6522 71.0444 15.98 70.961 15.3617C70.8777 14.7435 70.6147 14.2053 70.2036 13.8116L58.879 4.24864C58.8009 4.1827 58.6929 4.15865 58.5787 4.18182C58.4646 4.205 58.3536 4.27346 58.2703 4.37217C58.1869 4.47088 58.1379 4.59177 58.1342 4.70819C58.1305 4.82462 58.1723 4.92706 58.2504 4.99301C58.6354 5.31815 58.6835 5.99637 58.1995 8.03989L58.0936 8.44091C58.0803 8.5054 58.066 8.57312 58.0511 8.64372C57.7288 10.1728 57.1214 13.0546 59.3908 13.7051ZM88.171 11.2504C88.1253 11.1765 88.1048 11.0949 88.1129 11.02C88.6868 9.29106 90.8893 9.85129 92.0581 10.1486C92.112 10.1623 92.1638 10.1755 92.2131 10.1878L92.5189 10.2822C94.0791 10.7206 94.6036 10.7052 94.8665 10.4187C94.9199 10.3606 95.0002 10.3316 95.0898 10.3382C95.1795 10.3448 95.2711 10.3864 95.3446 10.4538C95.418 10.5212 95.4673 10.6089 95.4815 10.6977C95.4957 10.7865 95.4737 10.869 95.4204 10.9271L87.6859 19.3535C87.3691 19.658 86.9458 19.8436 86.4665 19.8881C85.9872 19.9326 85.472 19.8343 84.9825 19.6047C84.6713 19.5595 84.3584 19.4439 84.0687 19.2674C83.7791 19.0909 83.5208 18.8582 83.3145 18.5881C83.1083 18.318 82.9597 18.0179 82.8808 17.7118C82.8018 17.4057 82.7947 17.1021 82.86 16.8254C82.9252 16.5486 83.061 16.3063 83.2566 16.1179C83.4521 15.9295 83.7019 15.8002 83.986 15.7404C84.2701 15.6805 84.5806 15.6918 84.8926 15.7733C85.2047 15.8548 85.5096 16.0042 85.783 16.2096C86.2426 16.3589 86.6815 16.6183 87.0554 16.9615C87.4294 17.3047 87.7252 17.7198 87.9133 18.165L94.2092 11.3058C93.6731 11.2496 93.1313 11.1375 92.593 10.9713L92.2871 10.8768C90.7057 10.4189 89.1417 10.0702 88.7634 11.3376C88.7292 11.3998 88.6701 11.4425 88.5967 11.4583C88.5233 11.4741 88.4403 11.4619 88.3624 11.4238C88.2845 11.3858 88.2167 11.3244 88.171 11.2504Z" fill="white"/>
</svg>
