<svg width="40" height="40" viewBox="0 0 40 40" fill="none" xmlns="http://www.w3.org/2000/svg">
<path d="M5 16.6667V23.3334C5 24.25 5.75 25 6.66667 25H11.6667L17.15 30.4834C18.2 31.5334 20 30.7834 20 29.3V10.6834C20 9.20002 18.2 8.45002 17.15 9.50002L11.6667 15H6.66667C5.75 15 5 15.75 5 16.6667ZM27.5 20C27.4996 18.6036 27.1094 17.2349 26.3733 16.0483C25.6371 14.8616 24.5843 13.904 23.3333 13.2834V26.7C25.8 25.4834 27.5 22.95 27.5 20ZM23.3333 7.41669V7.75002C23.3333 8.38335 23.75 8.93335 24.3333 9.16669C28.6333 10.8834 31.6667 15.1 31.6667 20C31.6667 24.9 28.6333 29.1167 24.3333 30.8334C23.7333 31.0667 23.3333 31.6167 23.3333 32.25V32.5834C23.3333 33.6334 24.3833 34.3667 25.35 34C31 31.85 35 26.4 35 20C35 13.6 31 8.15002 25.35 6.00002C24.3833 5.61669 23.3333 6.36669 23.3333 7.41669V7.41669Z" fill="#3F3098"/>
</svg>
