<svg width="91" height="48" viewBox="0 0 91 48" fill="none" xmlns="http://www.w3.org/2000/svg">
<g clip-path="url(#clip0_11_451)">
<path d="M5.67152 7.30978C5.14406 7.43301 4.65476 7.68246 4.24604 8.03651C3.83732 8.39056 3.52152 8.83851 3.32603 9.34153C2.20052 12.2327 -1.06771e-06 18.5858 -8.3098e-07 24.0016C-5.94246e-07 29.4175 2.20052 35.7673 3.32603 38.6585C3.52177 39.1613 3.83764 39.6092 4.24632 39.9632C4.655 40.3172 5.14418 40.5667 5.67152 40.6902C11.4147 42.0782 20.4171 43.0122 22.774 43.0122L67.9996 43.0122C70.591 43.0122 80.4844 41.8772 85.5907 40.2557C85.8374 40.1757 86.0654 40.0473 86.2613 39.8779C86.4572 39.7086 86.6169 39.5018 86.7309 39.2698C87.8499 37.0872 91.0033 30.3725 91.0033 23.9951C91.0033 17.6177 87.8499 10.903 86.7309 8.71887C86.6168 8.48689 86.4572 8.28009 86.2613 8.11073C86.0654 7.94137 85.8374 7.81292 85.5907 7.73299C80.4876 6.11148 70.5943 4.97642 67.9996 4.97642L22.774 4.97642C20.4171 4.98777 11.4147 5.92176 5.67152 7.30978Z" fill="#06D0FF"/>
<path d="M88.6447 24C88.6447 17.3945 87.8353 12.0397 86.8368 12.0397C85.8382 12.0397 85.0288 17.3945 85.0288 24C85.0288 30.6055 85.8382 35.9603 86.8368 35.9603C87.8353 35.9603 88.6447 30.6055 88.6447 24Z" fill="black"/>
<path d="M18.4821 40.0416L14.9085 40.7697L15.4314 41.1896C18.7313 41.5318 21.6632 41.728 22.8376 41.728L35.5895 41.728L34.5976 38.4493L31.1103 38.4493C25.8004 38.4493 23.6552 38.9844 18.4821 40.0416ZM63.908 41.728L64.1426 41.548L53.3664 39.1871C51.1238 38.6964 48.8345 38.449 46.5384 38.4493L36.1808 38.4493L37.1727 41.728L63.908 41.728Z" fill="#032835"/>
<path d="M31.1103 9.5507L34.6025 9.5507L35.5944 6.27201L22.8376 6.27201C21.6648 6.27201 18.7297 6.46821 15.4314 6.80548L14.9085 7.2287L18.4821 7.95838C23.6552 9.0156 25.8004 9.5507 31.1103 9.5507ZM37.1776 6.27201L36.1857 9.5507L46.5433 9.5507C48.8394 9.55043 51.1287 9.30251 53.3712 8.81129L64.1474 6.45037L63.9129 6.27201L37.1776 6.27201Z" fill="#032835"/>
<path d="M3.04425 10.0891C1.8715 13.2218 -8.64432e-07 18.9944 -6.45559e-07 24.0016C-4.26686e-07 29.0089 1.8715 34.7766 3.04425 37.911L8.60338 38.6568C14.2488 39.406 19.2721 36.3689 19.2721 31.7849L19.2721 16.2184C19.2721 11.6295 14.2488 8.58266 8.60337 9.34153L3.04425 10.0891Z" fill="#06D0FF"/>
<path d="M62.9209 7.97946C61.1683 11.5873 58.3733 18.2355 58.3733 23.9984C58.3733 29.7612 61.1683 36.411 62.9209 40.0189L71.2279 40.8783C79.6618 41.7507 87.169 38.2434 87.169 32.9588L87.169 15.0411C87.169 9.75501 79.6618 6.24768 71.2279 7.12006L62.9209 7.97946Z" fill="#06D0FF"/>
<path d="M71.0487 8.18376L63.4438 8.99452C61.8394 12.3754 59.2789 18.6052 59.2789 24.0049L59.2789 24.0373L85.6429 24.0373L85.6429 15.6054C85.6429 10.6517 78.7709 7.36652 71.0487 8.18376Z" fill="#06D0FF"/>
<path d="M63.4438 39.012L71.0487 39.8227C78.7709 40.6335 85.6428 37.3548 85.6428 32.401L85.6428 24.0373L59.2887 24.0373C59.2887 29.4256 61.8427 35.636 63.4438 39.012Z" fill="#06D0FF"/>
<path d="M52.4477 24.0016C52.4481 28.7089 52.1729 33.4123 51.6235 38.0877L64.9798 40.4454C68.9497 29.8385 68.9497 18.1631 64.9798 7.55624L51.6235 9.91555C52.173 14.591 52.4482 19.2943 52.4477 24.0016Z" fill="#032835"/>
<path d="M20.4953 24.0016C20.4949 19.42 21.5538 14.8999 23.59 10.7912C20.4682 10.4031 17.1514 9.99229 13.6396 9.55881C11.2095 13.9883 9.93588 18.9545 9.93573 24.0016C9.95472 29.0437 11.2302 34.0024 13.6478 38.4331C17.1644 37.9985 20.4741 37.5883 23.5982 37.2007C21.556 33.0978 20.4941 28.5806 20.4953 24.0016Z" fill="#032835"/>
<g opacity="0.2">
<path d="M51.6154 9.91392C52.1676 14.5897 52.4455 19.2936 52.4477 24.0016C52.448 28.7089 52.1728 33.4123 51.6235 38.0877L62.2482 39.9638C56.9937 30.8217 54.3257 20.157 54.2198 9.45503L51.6154 9.91392Z" fill="#032835"/>
<path d="M17.5064 10.0355C16.2392 9.87339 14.972 9.72096 13.6462 9.54908C11.2127 13.9811 9.9368 18.9507 9.93573 24.0016C9.95469 29.0436 11.2296 34.0021 13.6462 38.4331C16.5422 38.0747 19.2656 37.7374 21.8912 37.4131C16.9722 29.4321 15.5095 19.2992 17.5064 10.0355Z" fill="#032835"/>
</g>
<path d="M52.3434 20.7829C52.3727 21.8564 52.4395 22.9103 52.4395 24C52.4399 28.7073 52.1647 33.4106 51.6154 38.0861L64.9716 40.4437C66.1577 37.252 66.9863 33.9398 67.4425 30.5671C60.9533 29.9331 55.9219 25.8988 52.3434 20.7829Z" fill="#032835"/>
<path d="M10.1996 20.0289C10.0233 21.3459 9.93519 22.673 9.93573 24.0016C9.95469 29.0436 11.2296 34.0021 13.6462 38.4331C17.1633 38.0007 20.4807 37.5899 23.5982 37.2007C22.1297 34.238 21.1669 31.0525 20.7494 27.7749C16.3956 26.7679 12.7177 23.8508 10.1996 20.0289Z" fill="#032835"/>
<path d="M82.768 39.5568C82.768 39.5568 85.1135 39.4757 85.9947 38.1574C86.669 37.1488 87.4915 35.1852 87.7245 31.3649C87.8825 28.7705 80.4893 39.3703 82.768 39.5568Z" fill="white"/>
<path d="M87.086 31.7687C87.3075 31.8043 87.3792 32.2875 87.2489 32.8502C87.1186 33.4129 86.8286 33.841 86.6071 33.8053C86.3856 33.7696 86.3139 33.2864 86.4442 32.7237C86.5745 32.1611 86.8645 31.7346 87.086 31.7687Z" fill="#BCBEC0"/>
<path d="M86.5028 34.2382C86.7244 34.2739 86.796 34.7571 86.6657 35.3198C86.5354 35.8824 86.2455 36.3089 86.024 36.2748C85.8025 36.2408 85.7308 35.756 85.8611 35.1933C85.9914 34.6306 86.2813 34.2042 86.5028 34.2382Z" fill="#BCBEC0"/>
<path d="M82.9895 39.5389C83.4781 39.4952 84.6786 39.3152 85.5076 38.6617C85.8464 38.0796 86.1787 37.3402 86.1787 37.3402L84.2095 37.7585C84.2095 37.7585 83.8837 38.4071 83.5694 38.9098C83.4092 39.1475 83.2136 39.3596 82.9895 39.5389Z" fill="#F7941D"/>
<path d="M82.768 8.4351C82.768 8.4351 85.1135 8.5178 85.9947 9.83609C86.669 10.8447 87.4915 12.8067 87.7245 16.6286C87.8825 19.2279 80.4893 8.62806 82.768 8.4351Z" fill="white"/>
<path d="M87.086 16.2297C87.3075 16.1957 87.3792 15.7108 87.2489 15.1498C87.1186 14.5887 86.8286 14.159 86.6071 14.1931C86.3856 14.2271 86.3139 14.7136 86.4442 15.2746C86.5745 15.8357 86.8645 16.2654 87.086 16.2297Z" fill="#BCBEC0"/>
<path d="M86.5028 13.7618C86.7244 13.7261 86.796 13.2413 86.6657 12.6802C86.5354 12.1192 86.2455 11.6895 86.024 11.7251C85.8025 11.7608 85.7308 12.244 85.8611 12.8067C85.9914 13.3694 86.2813 13.7958 86.5028 13.7618Z" fill="#BCBEC0"/>
<path d="M82.9895 8.46105C83.4781 8.50483 84.6786 8.68319 85.5076 9.33666C85.8464 9.91878 86.1787 10.6582 86.1787 10.6582L84.2095 10.2415C84.2095 10.2415 83.8837 9.59286 83.5694 9.09019C83.4092 8.85248 83.2136 8.64035 82.9895 8.46105Z" fill="#F7941D"/>
<path d="M63.8217 44.2203L63.0887 46.4044C62.6832 47.6092 61.3215 48.2757 60.0477 47.8914L59.5298 47.7292L61.7319 41.1896L62.2515 41.3518C63.5236 41.7264 64.2273 43.0138 63.8217 44.2203Z" fill="#06D0FF"/>
<path d="M63.8217 3.77974L63.0887 1.59557C62.6832 0.390784 61.3215 -0.275657 60.0477 0.10702L59.5298 0.269171L61.7319 6.81359L62.2515 6.65144C63.5236 6.27201 64.2273 4.98453 63.8217 3.77974Z" fill="#06D0FF"/>
<path d="M22.5151 24.0016C22.5082 28.4561 23.452 32.8611 25.284 36.9251L49.5272 36.9251C50.3107 32.7302 50.8189 28.4332 50.8189 24.0016C50.8189 19.57 50.3091 15.2714 49.5256 11.0782L25.2889 11.0782C23.4596 15.1432 22.5143 19.5473 22.5151 24.0016Z" fill="#06D0FF"/>
</g>
<defs>
<clipPath id="clip0_11_451">
<rect width="48" height="91" fill="white" transform="translate(0 48) rotate(-90)"/>
</clipPath>
</defs>
</svg>
