<svg width="41" height="22" viewBox="0 0 41 22" fill="none" xmlns="http://www.w3.org/2000/svg">
<g clip-path="url(#clip0_249_2)">
<path d="M2.5553 3.35031C2.31765 3.40679 2.0972 3.52112 1.91305 3.6834C1.7289 3.84567 1.58662 4.05098 1.49854 4.28153C0.991444 5.60665 -4.89369e-07 8.51848 -3.80866e-07 11.0007C-2.72363e-07 13.483 0.991444 16.3933 1.49854 17.7185C1.58673 17.9489 1.72905 18.1542 1.91318 18.3165C2.09731 18.4787 2.31771 18.5931 2.5553 18.6497C5.14289 19.2859 9.19893 19.7139 10.2608 19.7139L30.6372 19.7139C31.8047 19.7139 36.2622 19.1937 38.5628 18.4505C38.674 18.4139 38.7767 18.355 38.865 18.2774C38.9532 18.1998 39.0252 18.105 39.0766 17.9986C39.5807 16.9983 41.0015 13.9207 41.0015 10.9978C41.0015 8.07479 39.5807 4.99723 39.0766 3.99614C39.0252 3.88982 38.9532 3.79504 38.865 3.71741C38.7767 3.63979 38.674 3.58092 38.5628 3.54428C36.2637 2.80109 31.8062 2.28086 30.6372 2.28086L10.2608 2.28086C9.19893 2.28606 5.14289 2.71414 2.5553 3.35031Z" fill="#06D0FF"/>
<path d="M39.9388 11C39.9388 7.97249 39.5741 5.5182 39.1242 5.5182C38.6744 5.5182 38.3097 7.97249 38.3097 11C38.3097 14.0275 38.6744 16.4818 39.1242 16.4818C39.5741 16.4818 39.9388 14.0275 39.9388 11Z" fill="black"/>
<path d="M8.3271 18.3524L6.71701 18.6861L6.95258 18.8786C8.43938 19.0354 9.76033 19.1253 10.2894 19.1253L16.0348 19.1253L15.5879 17.6226L14.0167 17.6226C11.6243 17.6226 10.6578 17.8678 8.3271 18.3524ZM28.7937 19.1253L28.8994 19.0428L24.0442 17.9607C23.0338 17.7358 22.0023 17.6225 20.9678 17.6226L16.3012 17.6226L16.7481 19.1253L28.7937 19.1253Z" fill="#032835"/>
<path d="M14.0167 4.3774L15.5901 4.3774L16.037 2.87467L10.2894 2.87467C9.76106 2.87467 8.43864 2.96459 6.95258 3.11918L6.71701 3.31315L8.3271 3.64759C10.6578 4.13215 11.6243 4.3774 14.0167 4.3774ZM16.7503 2.87467L16.3034 4.3774L20.97 4.3774C22.0046 4.37728 23.036 4.26365 24.0464 4.03851L28.9016 2.95642L28.7959 2.87467L16.7503 2.87467Z" fill="#032835"/>
<path d="M1.37158 4.62415C0.843204 6.06 -3.96198e-07 8.70576 -2.95881e-07 11.0007C-1.95564e-07 13.2957 0.843205 15.9393 1.37158 17.3759L3.87625 17.7177C6.4198 18.0611 8.68303 16.6691 8.68303 14.5681L8.68303 7.43342C8.68303 5.33018 6.4198 3.93372 3.87625 4.28154L1.37158 4.62415Z" fill="#06D0FF"/>
<path d="M28.349 3.65725C27.5593 5.31085 26.3 8.35795 26.3 10.9993C26.3 13.6406 27.5594 16.6884 28.349 18.342L32.0917 18.7359C35.8916 19.1357 39.2739 17.5282 39.2739 15.1061L39.2739 6.89386C39.2739 4.47105 35.8916 2.86352 32.0917 3.26336L28.349 3.65725Z" fill="#06D0FF"/>
<path d="M32.0109 3.75089L28.5845 4.12249C27.8617 5.67205 26.7081 8.52739 26.7081 11.0022L26.7081 11.0171L38.5863 11.0171L38.5863 7.15249C38.5863 4.88203 35.4902 3.37632 32.0109 3.75089Z" fill="#06D0FF"/>
<path d="M28.5846 17.8805L32.011 18.2521C35.4902 18.6237 38.5863 17.1209 38.5863 14.8505L38.5863 11.0171L26.7125 11.0171C26.7125 13.4867 27.8632 16.3332 28.5846 17.8805Z" fill="#06D0FF"/>
<path d="M23.6303 11.0007C23.6304 13.1583 23.5064 15.3139 23.2589 17.4569L29.2766 18.5375C31.0652 13.676 31.0652 8.32475 29.2766 3.46327L23.2589 4.54462C23.5065 6.68752 23.6305 8.84322 23.6303 11.0007Z" fill="#032835"/>
<path d="M9.23414 11.0007C9.23394 8.90085 9.71104 6.8291 10.6285 4.94595C9.22191 4.76808 7.72753 4.5798 6.14533 4.38112C5.05042 6.4113 4.4766 8.68749 4.47653 11.0007C4.48509 13.3117 5.05975 15.5844 6.149 17.6152C7.7334 17.416 9.2246 17.228 10.6321 17.0503C9.71205 15.1698 9.2336 13.0994 9.23414 11.0007Z" fill="#032835"/>
<g opacity="0.2">
<path d="M23.2553 4.54388C23.5041 6.68696 23.6293 8.8429 23.6303 11.0007C23.6304 13.1583 23.5064 15.314 23.2589 17.4569L28.0459 18.3167C25.6785 14.1266 24.4764 9.23863 24.4287 4.33356L23.2553 4.54388Z" fill="#032835"/>
<path d="M7.88751 4.59962C7.31657 4.5253 6.74563 4.45544 6.14826 4.37666C5.05186 6.40799 4.47701 8.68575 4.47653 11.0007C4.48508 13.3116 5.05947 15.5843 6.14826 17.6152C7.45307 17.4509 8.68008 17.2963 9.86306 17.1477C7.6468 13.4897 6.9878 8.84548 7.88751 4.59962Z" fill="#032835"/>
</g>
<path d="M23.5833 9.5255C23.5965 10.0175 23.6266 10.5006 23.6266 11C23.6268 13.1575 23.5028 15.3132 23.2553 17.4561L29.2729 18.5367C29.8073 17.0739 30.1807 15.5557 30.3862 14.0099C27.4625 13.7193 25.1956 11.8703 23.5833 9.5255Z" fill="#032835"/>
<path d="M4.59542 9.17992C4.516 9.78352 4.47629 10.3918 4.47653 11.0007C4.48508 13.3116 5.05947 15.5843 6.14827 17.6152C7.73291 17.417 9.22754 17.2287 10.6321 17.0503C9.9705 15.6924 9.53673 14.2324 9.34863 12.7301C7.38702 12.2686 5.72996 10.9316 4.59542 9.17992Z" fill="#032835"/>
<path d="M37.2911 18.1302C37.2911 18.1302 38.3478 18.093 38.7449 17.4888C39.0487 17.0265 39.4193 16.1265 39.5242 14.3756C39.5954 13.1865 36.2644 18.0447 37.2911 18.1302Z" fill="white"/>
<path d="M39.2365 14.5606C39.3363 14.577 39.3686 14.7985 39.3099 15.0563C39.2512 15.3142 39.1206 15.5104 39.0208 15.4941C38.921 15.4777 38.8887 15.2563 38.9474 14.9984C39.0061 14.7405 39.1367 14.545 39.2365 14.5606Z" fill="#BCBEC0"/>
<path d="M38.9738 15.6925C39.0736 15.7089 39.1059 15.9303 39.0472 16.1882C38.9885 16.4461 38.8579 16.6416 38.7581 16.626C38.6583 16.6104 38.626 16.3881 38.6847 16.1303C38.7434 15.8724 38.874 15.6769 38.9738 15.6925Z" fill="#BCBEC0"/>
<path d="M37.3909 18.122C37.611 18.102 38.1519 18.0195 38.5254 17.7199C38.6781 17.4531 38.8278 17.1142 38.8278 17.1142L37.9405 17.306C37.9405 17.306 37.7938 17.6033 37.6521 17.8337C37.5799 17.9426 37.4919 18.0398 37.3909 18.122Z" fill="#F7941D"/>
<path d="M37.2911 3.86609C37.2911 3.86609 38.3478 3.90399 38.7449 4.50821C39.0487 4.97047 39.4193 5.86973 39.5242 7.62144C39.5954 8.81278 36.2644 3.95453 37.2911 3.86609Z" fill="white"/>
<path d="M39.2365 7.43862C39.3363 7.42301 39.3686 7.2008 39.3099 6.94365C39.2512 6.68651 39.1206 6.48956 39.0208 6.50517C38.921 6.52077 38.8887 6.74373 38.9474 7.00088C39.0061 7.25802 39.1367 7.45497 39.2365 7.43862Z" fill="#BCBEC0"/>
<path d="M38.9738 6.30748C39.0736 6.29113 39.1059 6.06891 39.0472 5.81177C38.9885 5.55462 38.8579 5.35767 38.7581 5.37403C38.6583 5.39038 38.626 5.61185 38.6847 5.86974C38.7434 6.12762 38.874 6.32308 38.9738 6.30748Z" fill="#BCBEC0"/>
<path d="M37.3909 3.87798C37.611 3.89804 38.1519 3.97979 38.5254 4.2793C38.6781 4.54611 38.8278 4.885 38.8278 4.885L37.9405 4.694C37.9405 4.694 37.7938 4.39672 37.6521 4.16633C37.5799 4.05738 37.4919 3.96016 37.3909 3.87798Z" fill="#F7941D"/>
<path d="M28.7548 20.2676L28.4246 21.2687C28.2419 21.8209 27.6284 22.1263 27.0545 21.9502L26.8211 21.8759L27.8133 18.8786L28.0474 18.9529C28.6205 19.1246 28.9376 19.7147 28.7548 20.2676Z" fill="#06D0FF"/>
<path d="M28.7548 1.73238L28.4246 0.7313C28.2419 0.179107 27.6284 -0.126345 27.0545 0.049049L26.8211 0.123368L27.8133 3.12289L28.0474 3.04857C28.6205 2.87467 28.9376 2.28457 28.7548 1.73238Z" fill="#06D0FF"/>
<path d="M10.1442 11.0007C10.1411 13.0424 10.5663 15.0613 11.3917 16.924L22.3145 16.924C22.6675 15.0013 22.8964 13.0319 22.8964 11.0007C22.8964 8.96959 22.6667 6.99939 22.3137 5.07749L11.3939 5.07749C10.5697 6.94062 10.1438 8.95918 10.1442 11.0007Z" fill="#06D0FF"/>
</g>
<defs>
<clipPath id="clip0_249_2">
<rect width="22" height="41" fill="white" transform="translate(0 22) rotate(-90)"/>
</clipPath>
</defs>
</svg>
