<svg width="25" height="156" viewBox="0 0 25 156" fill="none" xmlns="http://www.w3.org/2000/svg">
<path d="M24.4199 156L24.4199 0L21.3828 -1.32758e-07L21.3828 156L24.4199 156Z" fill="white"/>
<path d="M3.69518 156L3.69519 0L0.658042 -1.32758e-07L0.658035 156L3.69518 156Z" fill="white"/>
<path d="M20.0446 7.7616L20.0446 0L12.283 -3.3927e-07L12.283 7.7616L20.0446 7.7616Z" fill="white"/>
<path d="M12.2713 15.5348L12.2713 7.77324L4.5097 7.77323L4.5097 15.5348L12.2713 15.5348Z" fill="white"/>
<path d="M20.0446 23.3313L20.0446 15.5697L12.283 15.5697L12.283 23.3313L20.0446 23.3313Z" fill="white"/>
<path d="M12.2713 31.1046L12.2713 23.343L4.5097 23.343L4.5097 31.1046L12.2713 31.1046Z" fill="white"/>
<path d="M20.0446 38.9011L20.0446 31.1395L12.283 31.1395L12.283 38.9011L20.0446 38.9011Z" fill="white"/>
<path d="M12.2713 46.6743L12.2713 38.9127L4.5097 38.9127L4.5097 46.6743L12.2713 46.6743Z" fill="white"/>
<path d="M20.0446 54.4592L20.0446 46.6976L12.283 46.6976L12.283 54.4592L20.0446 54.4592Z" fill="white"/>
<path d="M12.2713 62.2441L12.2713 54.4825L4.5097 54.4825L4.5097 62.2441L12.2713 62.2441Z" fill="white"/>
<path d="M20.0446 70.0289L20.0446 62.2673L12.283 62.2673L12.283 70.0289L20.0446 70.0289Z" fill="white"/>
<path d="M12.2713 77.8138L12.2713 70.0522L4.5097 70.0522L4.5097 77.8138L12.2713 77.8138Z" fill="white"/>
<path d="M20.0446 85.5987L20.0446 77.8371L12.283 77.8371L12.283 85.5987L20.0446 85.5987Z" fill="white"/>
<path d="M12.2713 93.3836L12.2713 85.622L4.5097 85.622L4.5097 93.3836L12.2713 93.3836Z" fill="white"/>
<path d="M20.0446 101.168L20.0446 93.4068L12.283 93.4068L12.283 101.168L20.0446 101.168Z" fill="white"/>
<path d="M12.2713 108.942L12.2713 101.18L4.5097 101.18L4.5097 108.942L12.2713 108.942Z" fill="white"/>
<path d="M20.0446 116.738L20.0446 108.977L12.283 108.977L12.283 116.738L20.0446 116.738Z" fill="white"/>
<path d="M12.2713 124.511L12.2713 116.75L4.5097 116.75L4.5097 124.511L12.2713 124.511Z" fill="white"/>
<path d="M20.0446 132.308L20.0446 124.546L12.283 124.546L12.283 132.308L20.0446 132.308Z" fill="white"/>
<path d="M12.2713 140.081L12.2713 132.32L4.5097 132.32L4.5097 140.081L12.2713 140.081Z" fill="white"/>
<path d="M20.0446 147.866L20.0446 140.104L12.283 140.104L12.283 147.866L20.0446 147.866Z" fill="white"/>
<path d="M12.2713 155.651L12.2713 147.889L4.5097 147.889L4.5097 155.651L12.2713 155.651Z" fill="white"/>
</svg>
