<svg width="186" height="44" viewBox="0 0 186 44" fill="none" xmlns="http://www.w3.org/2000/svg">
<g clip-path="url(#clip0_4_219)">
<path d="M18.4997 16.8461C17.7963 16.8832 17.1065 17.0557 16.4681 17.3541C15.822 17.6541 15.124 17.8258 14.4128 17.8595C14.2927 17.8556 14.1736 17.8361 14.0585 17.8016C13.9729 17.7746 13.885 17.7552 13.796 17.7437C13.7745 17.7376 13.7519 17.7366 13.73 17.7407C13.708 17.7449 13.6873 17.7541 13.6695 17.7676C13.6517 17.7811 13.6373 17.7986 13.6273 17.8186C13.6174 17.8387 13.6122 17.8608 13.6123 17.8832C13.5808 17.978 13.6123 18.0412 13.7278 18.0727C14.2316 18.1918 14.7483 18.2475 15.2659 18.2386C15.6361 18.2305 16.0049 18.1908 16.3683 18.1201C16.724 18.051 17.0849 18.0123 17.4471 18.0043C18.8855 18.0043 19.6047 18.4097 19.6047 19.2283C19.6047 19.8898 18.9004 20.2197 17.4918 20.218C16.7977 20.2025 16.106 20.1312 15.4234 20.0048C14.7113 19.8723 13.9898 19.7975 13.2658 19.781C12.1907 19.8222 11.1256 20.0045 10.0977 20.3233C9.99266 20.3549 9.95329 20.418 9.98216 20.5128C9.98591 20.5361 9.99434 20.5583 10.0069 20.5782C10.0195 20.5981 10.036 20.6152 10.0554 20.6285C10.0748 20.6418 10.0967 20.651 10.1198 20.6555C10.1428 20.6601 10.1666 20.6599 10.1895 20.6549C10.8133 20.5619 11.4436 20.5205 12.0741 20.5312C12.9001 20.5312 13.9133 20.8374 15.1137 21.4499C16.3141 22.0623 17.3281 22.3703 18.1558 22.3738C18.639 22.3599 19.1226 22.3837 19.6021 22.4448C20.1271 22.5712 20.3895 22.837 20.3895 23.2345C20.3895 23.632 20.1139 23.8794 19.5627 23.9873C19.0605 24.0505 18.5541 24.0743 18.0482 24.0584C17.084 24.0584 15.8521 23.7952 14.3525 23.2687C12.8528 22.7423 11.606 22.4791 10.6121 22.4791C9.78443 22.4791 8.72488 22.7502 7.43347 23.2924C6.14206 23.8346 5.14026 24.1145 4.42806 24.1321C3.89039 24.083 3.36401 23.9479 2.86892 23.732C2.85015 23.7184 2.82813 23.7101 2.80511 23.7078C2.78209 23.7056 2.75888 23.7094 2.73783 23.719C2.71678 23.7287 2.69864 23.7437 2.68525 23.7626C2.67185 23.7815 2.66368 23.8036 2.66156 23.8267C2.65298 23.8497 2.64917 23.8741 2.65039 23.8986C2.65161 23.9231 2.65783 23.947 2.66866 23.969C2.67948 23.991 2.69469 24.0105 2.71334 24.0263C2.73198 24.0421 2.75367 24.0539 2.77705 24.061C3.88326 24.4998 5.05569 24.7472 6.24443 24.7928C6.69321 24.7844 7.1411 24.7493 7.58571 24.6875C8.03784 24.6216 8.49378 24.5856 8.95061 24.5796C10.1143 24.5796 10.6961 24.8709 10.6961 25.4535C10.6961 26.1554 9.81592 26.5063 8.05555 26.5063C7.61196 26.5063 7.04762 26.4826 6.3573 26.4379C5.66697 26.3932 5.11839 26.3668 4.70367 26.3668C3.90076 26.3587 3.1022 26.486 2.34134 26.7432C1.57668 27.0437 0.833053 27.3955 0.115495 27.7961C0.0806652 27.8062 0.0502752 27.8278 0.0292958 27.8575C0.00831631 27.8871 -0.00201088 27.923 3.33761e-06 27.9593C3.33761e-06 28.1348 0.0874971 28.1901 0.262485 28.1251C1.11008 27.7467 2.02082 27.5306 2.94767 27.4881C4.085 27.5421 5.2074 27.7702 6.27593 28.1646C7.34192 28.5531 8.46063 28.7768 9.59369 28.8279C10.5736 28.8279 11.7985 28.5647 13.2684 28.0383C14.7383 27.5118 15.9545 27.2486 16.9169 27.2486C18.2661 27.2486 18.938 27.5487 18.938 28.1462C18.938 28.6972 18.4559 28.9718 17.4918 28.9701C17.3238 28.9701 17.0797 28.9701 16.7568 28.9464C16.434 28.9227 16.2056 28.9227 16.0691 28.9227C15.1912 28.9244 14.3233 29.109 13.5204 29.4649C12.7715 29.8159 12.0295 30.1546 11.2946 30.481C10.2099 30.854 9.0681 31.0322 7.92169 31.0074C6.52179 31.0074 5.44999 31.1259 4.70629 31.3628C4.68348 31.3664 4.66181 31.3752 4.64298 31.3886C4.62414 31.402 4.60865 31.4196 4.59772 31.4399C4.58679 31.4603 4.58071 31.483 4.57997 31.5061C4.57922 31.5293 4.58383 31.5523 4.59342 31.5733C4.59887 31.595 4.60864 31.6154 4.62213 31.6332C4.63562 31.651 4.65255 31.6658 4.67192 31.6769C4.69129 31.688 4.71269 31.695 4.73484 31.6975C4.75698 31.7001 4.77941 31.6981 4.80078 31.6918C5.09489 31.6281 5.39497 31.5964 5.69585 31.597C6.40577 31.6285 7.10637 31.7715 7.77207 32.0208C8.43733 32.2721 9.1381 32.416 9.8483 32.4472C10.59 32.4044 11.3177 32.226 11.9954 31.9208C12.6209 31.6298 13.2926 31.4516 13.9798 31.3943C14.1326 31.399 14.2792 31.4567 14.3945 31.5575C14.4559 31.6003 14.5067 31.6568 14.5427 31.7226C14.5787 31.7884 14.5989 31.8616 14.6018 31.9366C14.6018 32.463 14.2239 32.9263 13.4758 33.3027C12.884 33.6014 12.2326 33.7624 11.5702 33.7739C11.4626 33.7739 11.4101 33.8291 11.4101 33.9397C11.4101 34.0502 11.4416 34.0897 11.5466 34.1055C12.4268 34.1485 13.3036 33.9674 14.0952 33.5791C14.1477 33.5843 14.8739 33.2097 16.2738 32.4551C17.0849 32.0155 17.749 31.7944 18.2713 31.7944C18.6012 31.8156 18.9259 31.8866 19.2346 32.005C19.0597 32.5833 18.7705 33.1205 18.3842 33.5843C18.2082 33.7948 18.017 33.9919 17.812 34.174C17.7359 34.2345 17.7122 34.2977 17.7411 34.3608C17.77 34.424 17.8172 34.4793 17.9275 34.4793L17.8645 34.5872H22.4841L24.458 31.0601H30.9098L31.3376 34.5793H35.6974L33.0464 18.078L18.4997 16.8461ZM26.1484 27.9593L29.7969 21.3209L30.5843 27.9646L26.1484 27.9593ZM48.6719 17.9122C49.4827 18.0088 50.2808 18.1924 51.0526 18.4597L50.0315 21.6762C49.4418 21.4095 48.826 21.2049 48.1942 21.0656C47.5706 20.9302 46.9344 20.8622 46.2964 20.8629C45.3148 20.8629 44.5641 21.0077 44.0443 21.2972C43.8062 21.4094 43.6054 21.5879 43.4657 21.8115C43.3261 22.0351 43.2536 22.2942 43.2569 22.558C43.2569 23.1547 43.8431 23.6969 45.0155 24.1847C45.488 24.376 45.859 24.5383 46.1284 24.6717C47.4969 25.3385 48.4269 25.9887 48.9186 26.6222C49.4336 27.3232 49.6955 28.179 49.6614 29.049C49.6885 29.8819 49.5152 30.7089 49.156 31.4603C48.7969 32.2117 48.2626 32.8654 47.5983 33.3659C46.2264 34.4381 44.3619 34.9741 42.0049 34.9741C41.0449 34.9765 40.0863 34.9008 39.1386 34.7478C38.2384 34.599 37.353 34.3708 36.4928 34.066L37.4429 30.6652C38.0818 30.9864 38.7509 31.243 39.4404 31.4312C40.0572 31.6008 40.6934 31.6892 41.3329 31.6944C42.4616 31.6944 43.3496 31.5084 43.9971 31.1364C44.6446 30.7644 44.9692 30.2616 44.9709 29.6281C44.9709 28.8297 44.11 28.0865 42.3881 27.3987C41.955 27.2276 41.619 27.0907 41.3802 26.9907C40.5541 26.6776 39.8321 26.1387 39.2961 25.435C38.8271 24.753 38.5871 23.9389 38.611 23.1108C38.5951 22.3541 38.7617 21.6047 39.0967 20.9264C39.4317 20.2481 39.9251 19.661 40.535 19.2151C41.8106 18.2201 43.4826 17.7227 45.551 17.7227C46.5943 17.7175 47.6368 17.7808 48.6719 17.9122ZM68.9774 18.0885L60.8405 28.3541L59.5281 34.5898H55.1499L56.3783 28.3541L52.3729 18.0885H57.1658L58.7065 22.8844C58.7223 22.9292 58.7827 23.1634 58.885 23.5793C58.9874 23.9952 59.0898 24.3927 59.1816 24.7638C59.4441 24.3234 59.683 23.9312 59.8982 23.5872C60.1161 23.2424 60.2762 22.9923 60.3864 22.837L63.8486 18.0991L68.9774 18.0885ZM81.8784 18.0885H85.8865L82.3771 34.5898H76.97L74.1667 25.3561C74.0354 24.9402 73.9226 24.5111 73.8307 24.0742C73.7352 23.6197 73.666 23.16 73.6233 22.6975H73.4475C73.3705 23.3029 73.29 23.8776 73.206 24.4216C73.122 24.9656 73.0293 25.4789 72.9278 25.9615L71.1088 34.5898H67.0797L70.5891 18.0885H75.9962L78.5554 26.4616C78.7864 27.2039 78.9613 27.8426 79.0803 28.3778C79.1969 28.8831 79.2845 29.3945 79.3428 29.9098H79.5397C79.5685 29.4518 79.6315 28.9464 79.7234 28.3884C79.8153 27.8303 79.9439 27.1802 80.1066 26.4379L81.8784 18.0885ZM99.5407 17.949C100.519 18.1243 101.484 18.3689 102.428 18.6808L101.339 22.0368C100.77 21.6755 100.151 21.4014 99.5014 21.2235C98.8234 21.0421 98.1241 20.9535 97.4225 20.9603C95.4382 20.9603 93.8904 21.5236 92.7792 22.6502C91.6681 23.7767 91.1116 25.3385 91.1098 27.3355C91.1098 28.6375 91.5307 29.6694 92.3724 30.431C93.2141 31.1925 94.3585 31.5725 95.8056 31.5707C96.4608 31.5668 97.1127 31.4783 97.7454 31.3075C98.4358 31.122 99.1052 30.8653 99.7429 30.5415L99.3255 34.3503C98.5588 34.5435 97.7825 34.6964 96.9999 34.8083C96.2748 34.9118 95.5433 34.9646 94.8108 34.9663C92.2228 34.9663 90.2052 34.281 88.758 32.9105C87.3109 31.54 86.5873 29.6387 86.5873 27.2065C86.5858 25.9631 86.8154 24.7304 87.2645 23.5714C87.683 22.4554 88.3233 21.4363 89.1465 20.576C90.0668 19.6074 91.1927 18.8589 92.4406 18.386C93.8494 17.897 95.3337 17.6635 96.8241 17.6963C97.7352 17.7011 98.6442 17.7857 99.5407 17.949ZM120.72 27.3381C120.447 26.9374 120.088 26.6021 119.67 26.3563C121.114 26.2405 122.23 25.8185 123.017 25.0902C123.411 24.7184 123.721 24.2655 123.925 23.7626C124.129 23.2598 124.222 22.7187 124.198 22.1764C124.198 20.8199 123.705 19.7995 122.718 19.1151C121.731 18.4307 120.256 18.0885 118.292 18.0885H112.093L108.607 34.5898H112.917L114.295 28.0278H115.082C115.557 27.9943 116.031 28.0908 116.455 28.3068C116.775 28.5403 116.989 28.8915 117.051 29.2833L118.208 34.5898H122.529L121.311 28.9806C121.219 28.4006 121.019 27.8433 120.72 27.3381ZM118.87 24.3979C118.313 24.7752 117.526 24.963 116.508 24.9612H114.946L115.72 21.1077H117.434C118.185 21.1077 118.746 21.2498 119.132 21.5367C119.322 21.6881 119.472 21.8834 119.569 22.1058C119.666 22.3282 119.708 22.571 119.691 22.8133C119.703 23.1263 119.634 23.437 119.49 23.7148C119.346 23.9927 119.132 24.2281 118.87 24.3979ZM132.755 18.0806L123.025 34.5898H127.647L129.616 31.0706H136.065L136.49 34.5898H140.855L138.204 18.0885L132.755 18.0806ZM131.306 27.9514L134.955 21.3209L135.742 27.9646L131.306 27.9514ZM154.252 31.3233C154.944 31.1378 155.614 30.8811 156.252 30.5573L155.835 34.3661C155.067 34.5591 154.29 34.712 153.507 34.8241C152.782 34.9277 152.05 34.9805 151.318 34.982C148.731 34.982 146.719 34.2968 145.281 32.9263C143.842 31.5558 143.118 29.6545 143.107 27.2223C143.105 25.9786 143.336 24.7456 143.787 23.5872C144.206 22.4712 144.846 21.4521 145.669 20.5918C146.589 19.6227 147.715 18.8741 148.963 18.4018C150.372 17.9126 151.856 17.679 153.347 17.7121C154.255 17.7147 155.161 17.7966 156.056 17.9569C157.034 18.1319 157.999 18.3765 158.943 18.6887L157.854 22.0447C157.285 21.683 156.666 21.4088 156.016 21.2314C155.338 21.0498 154.639 20.9613 153.937 20.9682C151.953 20.9682 150.405 21.5315 149.294 22.658C148.183 23.7846 147.627 25.3464 147.627 27.3434C147.627 28.6454 148.047 29.6773 148.887 30.4389C149.727 31.2004 150.87 31.5821 152.315 31.5839C152.969 31.5808 153.62 31.4933 154.252 31.3233ZM164.983 21.1603L164.313 24.4637H171.085L170.461 27.4355H163.662L162.807 31.4996H170.274L169.615 34.5898H157.751L161.261 18.0885H172.852L172.188 21.1524L164.983 21.1603ZM2.22584 20.4786C2.21417 20.4639 2.20597 20.4468 2.20186 20.4285C2.19776 20.4102 2.19786 20.3912 2.20216 20.3729C2.20646 20.3547 2.21484 20.3376 2.22668 20.3231C2.23851 20.3086 2.25348 20.2969 2.27047 20.2891C3.0007 19.8993 3.80684 19.6739 4.6328 19.6284C4.98715 19.6126 5.52523 19.7916 6.2523 20.1548C6.97938 20.5181 7.48072 20.6997 7.7537 20.6813C8.05732 20.6781 8.36052 20.6579 8.66188 20.6207C8.6786 20.6155 8.69619 20.6138 8.71358 20.6157C8.73097 20.6176 8.7478 20.623 8.76303 20.6316C8.77826 20.6403 8.79158 20.6519 8.80217 20.6659C8.81276 20.6798 8.8204 20.6958 8.82462 20.7128C8.85349 20.8076 8.82462 20.8708 8.75638 20.9024C8.08717 21.2211 7.3622 21.4053 6.6224 21.4446C6.05779 21.4184 5.50851 21.252 5.02389 20.9603C4.4971 20.6559 3.90203 20.4901 3.29414 20.4786C3.008 20.4893 2.72295 20.5201 2.44108 20.5707C2.4212 20.5809 2.39933 20.5866 2.37701 20.5874C2.35469 20.5882 2.33247 20.584 2.31193 20.5752C2.29139 20.5664 2.27303 20.5532 2.25815 20.5365C2.24328 20.5198 2.23225 20.5 2.22584 20.4786Z" fill="url(#paint0_linear_4_219)"/>
<path fill-rule="evenodd" clip-rule="evenodd" d="M175.952 19.6863C175.875 19.7216 175.793 19.7412 175.709 19.744C175.625 19.7467 175.542 19.7326 175.463 19.7024C175.385 19.6722 175.314 19.6266 175.253 19.5682C175.193 19.5098 175.145 19.4399 175.112 19.3625C174.292 17.4956 173.151 15.7877 171.741 14.3166C171.622 14.1954 171.555 14.0317 171.555 13.8612C171.555 13.6907 171.622 13.5271 171.741 13.4058L177.204 8.03087C177.263 7.97142 177.333 7.92424 177.41 7.89205C177.487 7.85986 177.57 7.84329 177.654 7.84329C177.737 7.84329 177.82 7.85986 177.898 7.89205C177.975 7.92424 178.045 7.97142 178.104 8.03087C180.245 10.2656 181.977 12.86 183.222 15.6959C183.291 15.8512 183.296 16.0277 183.236 16.1866C183.175 16.3455 183.054 16.4738 182.9 16.5434L175.952 19.6863Z" fill="#089BFF"/>
<path fill-rule="evenodd" clip-rule="evenodd" d="M176.083 32.9395L183.096 35.9428C183.174 35.9749 183.244 36.0225 183.303 36.0827C183.361 36.1429 183.407 36.2144 183.438 36.2929C183.501 36.4509 183.501 36.6271 183.438 36.7851C182.534 38.9427 181.351 40.9719 179.92 42.8208C179.658 43.1393 179.419 43.4525 179.133 43.7789C179.027 43.9042 178.876 43.9832 178.713 43.9989C178.55 44.0146 178.387 43.9659 178.259 43.8631L178.24 43.8473L172.466 38.8119C172.338 38.7005 172.259 38.5428 172.246 38.3733C172.233 38.2037 172.288 38.0359 172.398 37.9064C172.584 37.6853 172.752 37.4774 172.923 37.2721C173.867 36.0494 174.648 34.7079 175.246 33.2816C175.277 33.2041 175.324 33.1337 175.384 33.0744C175.443 33.0152 175.513 32.9683 175.59 32.9364C175.668 32.9046 175.751 32.8885 175.834 32.889C175.918 32.8895 176.001 32.9067 176.078 32.9395H176.083Z" fill="#003A8E"/>
<path fill-rule="evenodd" clip-rule="evenodd" d="M163.639 0.608053C166.64 1.27371 169.499 2.47272 172.08 4.14837C172.149 4.19342 172.208 4.25219 172.253 4.32103C172.298 4.38986 172.328 4.46728 172.343 4.54847C172.379 4.71387 172.348 4.88688 172.259 5.03016L168.172 11.5344C168.128 11.6052 168.07 11.6666 168.002 11.7148C167.935 11.7631 167.858 11.7973 167.777 11.8155C167.696 11.8336 167.612 11.8353 167.53 11.8205C167.448 11.8057 167.37 11.7746 167.3 11.7291C165.598 10.6273 163.714 9.83924 161.736 9.40226C161.64 9.37998 161.551 9.33782 161.473 9.27855C161.418 9.23385 161.37 9.18053 161.331 9.12062C161.244 8.97444 161.213 8.80114 161.245 8.63366L162.877 1.10028C162.913 0.935101 163.012 0.790637 163.153 0.698419C163.294 0.6062 163.466 0.573714 163.631 0.608053H163.639Z" fill="#06D0FF"/>
<path fill-rule="evenodd" clip-rule="evenodd" d="M148.265 2.10577C148.336 1.95092 148.464 1.82939 148.622 1.76621C151.479 0.652507 154.51 0.0545531 157.575 0C157.739 0.0023957 157.895 0.0662858 158.014 0.17899C158.132 0.301402 158.2 0.46388 158.205 0.634362L158.342 8.34937C158.345 8.43307 158.33 8.51646 158.299 8.59434C158.269 8.67223 158.222 8.74295 158.163 8.80211C158.047 8.9242 157.888 8.99519 157.72 8.99952C155.692 9.03424 153.687 9.42995 151.798 10.1682C151.696 10.2072 151.585 10.219 151.477 10.2024C151.369 10.1858 151.267 10.1414 151.181 10.0735C151.09 10.001 151.019 9.90567 150.977 9.79708L148.255 2.59799C148.192 2.43999 148.192 2.26377 148.255 2.10577H148.265Z" fill="#03FFFF"/>
<path fill-rule="evenodd" clip-rule="evenodd" d="M156.478 26.351C156.478 26.4037 156.504 26.459 156.515 26.5063L167.182 34.245C167.232 34.2937 167.264 34.3571 167.275 34.4259C167.286 34.4946 167.275 34.565 167.243 34.6267C167.211 34.6888 167.159 34.7385 167.096 34.7681C167.033 34.7976 166.961 34.8053 166.893 34.7899L154.756 29.844C154.664 29.8819 154.569 29.9135 154.473 29.9387C154.11 30.0428 153.729 30.0732 153.354 30.028C152.979 29.9828 152.617 29.863 152.289 29.6755C151.956 29.4853 151.664 29.2305 151.43 28.9259C151.196 28.6213 151.025 28.273 150.927 27.9014C150.721 27.1567 150.815 26.3607 151.189 25.6851C151.374 25.3535 151.622 25.0618 151.92 24.8269C152.218 24.5919 152.559 24.4184 152.924 24.3164C153.288 24.2094 153.669 24.1776 154.046 24.2229C154.422 24.2681 154.785 24.3895 155.113 24.5796C155.444 24.7682 155.733 25.0204 155.966 25.3217C156.199 25.623 156.37 25.9674 156.47 26.3353L156.478 26.351Z" fill="#3CC4EC"/>
<path fill-rule="evenodd" clip-rule="evenodd" d="M176.406 22.7818C176.453 22.713 176.513 22.6544 176.583 22.6092C176.653 22.564 176.731 22.5332 176.813 22.5185L184.299 21.1024C184.381 21.0863 184.466 21.0869 184.549 21.104C184.631 21.1212 184.709 21.1547 184.779 21.2024C184.916 21.3 185.01 21.4472 185.041 21.613C185.608 24.6638 185.64 27.7903 185.136 30.8521C185.106 31.0205 185.012 31.1706 184.873 31.2706C184.806 31.3194 184.73 31.3543 184.65 31.3732C184.569 31.3922 184.485 31.3949 184.404 31.3812L176.886 30.1151C176.782 30.0956 176.684 30.0523 176.6 29.9887C176.51 29.9168 176.44 29.822 176.399 29.7142C176.357 29.6064 176.345 29.4895 176.364 29.3754C176.699 27.3527 176.677 25.2867 176.301 23.2713C176.285 23.1884 176.286 23.1032 176.303 23.0205C176.32 22.9379 176.353 22.8594 176.4 22.7896L176.406 22.7818Z" fill="#0B63FF"/>
</g>
<defs>
<linearGradient id="paint0_linear_4_219" x1="3.33763e-06" y1="25.9088" x2="172.857" y2="25.9088" gradientUnits="userSpaceOnUse">
<stop stop-color="#3EFFFF"/>
<stop offset="0.13" stop-color="#3EF6FC"/>
<stop offset="0.36" stop-color="#3DDCF4"/>
<stop offset="0.64" stop-color="#3CB3E7"/>
<stop offset="0.97" stop-color="#3A7AD5"/>
<stop offset="0.99" stop-color="#3A75D3"/>
</linearGradient>
<clipPath id="clip0_4_219">
<rect width="185.49" height="44" fill="white"/>
</clipPath>
</defs>
</svg>
